# xmcd CD database file
#
# Track frame offsets:
#	150
#	25763
#	62119
#	102497
#	123816
#	176269
#	202247
#	209916
#	238257
#	267113
#	309507
#
# Disc length: 4678 seconds
#
# Revision: 0
# Processed by: cddbd v1.5.2PL0 Copyright (c) Steve Scherf et al.
# Submitted via: CDex 1.51
#
DISCID=a212440b
DTITLE=Oscar Peterson Trio - The Trio - Live From Chicago
DYEAR=1961
DGENRE=Jazz
TTITLE0=I'Ve Never Been In Love Before
TTITLE1=In The Wee Small Hours Of The Morning
TTITLE2=Chicago
TTITLE3=The Night We Called It A Day
TTITLE4=Sometimes I'm Happy
TTITLE5=Whisper Not
TTITLE6=Billy Boy
TTITLE7=It Happened In Monterey
TTITLE8=Moanin'
TTITLE9=Scrapple From The Apple
TTITLE10=Jim
EXTD=YEAR: 1961
EXTT0=
EXTT1=
EXTT2=
EXTT3=
EXTT4=
EXTT5=
EXTT6=
EXTT7=
EXTT8=
EXTT9=
EXTT10=
PLAYORDER=
